<svg xmlns="http://www.w3.org/2000/svg" width="256" height="256" viewBox="0 0 256 256" fill="none">
<path d="M 36.65,122.1 C 36.65,113.02 40.91,107.33 47.89,104.75 L 115.28,75.06 C 121.73,72.46 127.94,72.18 134.72,75.06 L 205.14,105.24 C 212.41,108.16 215.35,115.81 215.35,122.1 V 245.13 C 211.09,247.52 204.29,248.19 196.31,248.19 H 60.81 C 51.31,248.19 43.29,247.51 36.65,245.13 V 122.1 Z" fill="url(#paint0_linear_1002_10289)"/>
<path d="M 126.18,170.41 C 126.18,162.45 130.94,155.27 138.41,152.21 L 200.11,124.98 C 203.61,123.54 209.29,118.08 207.28,110.91 L 209.29,110.09 C 213.78,114.11 215.35,118.97 215.35,123.27 V 245.13 C 211.26,247.61 204.91,248.19 197.13,248.19 H 126.18 V 170.41 Z" fill="url(#paint1_linear_1002_10289)"/>
<path d="M 55.06,122.04 L 112.12,150.66 C 121.08,154.86 129.81,154.26 137.78,150.66 L 197.63,123.07 C 199.18,122.41 198.11,118.98 196.66,119.72 L 136.71,144.13 C 129.03,147.71 121.66,146.65 115.17,143.91 L 56.74,120.08 C 54.73,119.24 53.67,121.21 55.06,122.04 Z" fill="url(#paint2_linear_1002_10289)"/>
<path d="M 108.41,112.14 C 108.41,106.41 117.38,104.11 127.49,104.11 C 137.61,104.11 145.08,107.49 145.08,112.04 C 145.08,117.08 136.82,119.91 127.59,119.91 C 117.71,119.91 108.41,117.58 108.41,112.14 Z" fill="url(#paint3_linear_1002_10289)"/>
<path d="M 147.59,18.22 L 140.72,35.84 L 125.03,28.71 C 123.25,27.87 122.81,28.92 123.81,30.7 L 132.72,44.74 C 133.62,46.31 132.72,47.91 130.72,48.81 L 117.28,53.92 C 115.43,54.71 116.06,56.96 118.43,56.62 L 134.13,53.92 L 149.24,51.43 L 154.21,67.16 L 165.17,77.27 C 166.69,78.73 170.09,78.45 167.13,73.91 L 163.35,60.81 L 179.52,56.62 C 182.01,56.16 182.31,54.41 179.52,53.24 L 165.17,47.06 L 172.88,31.04 C 174.28,28.71 172.88,27.65 170.56,28.71 L 155.71,35.84 L 149.53,18.22 C 149.09,17.08 148.03,17.08 147.59,18.22 Z" fill="#FEFEFF" fill-opacity="0.25"/>
<path d="M 147.68,18.29 L 140.61,36.21 L 124.92,28.92 C 123.61,28.29 123.22,29.21 124.23,30.81 L 133.13,44.71 C 133.91,46.02 133.31,47.77 131.41,48.51 L 117.51,54.61 C 115.61,55.48 116.28,56.83 118.42,56.47 L 134.92,53.09 L 149.28,50.12 L 154.42,67.2 L 165.61,77.08 C 166.86,78.29 167.14,77.41 166.47,75.71 L 161.71,61.11 C 161.09,59.43 162.05,57.77 164.19,57.41 L 178.81,55.01 C 180.71,54.66 180.65,53.61 178.64,52.71 L 165.37,46.91 C 163.71,46.16 163.15,44.26 164.41,42.6 L 172.59,30.01 C 173.71,28.29 172.31,27.77 170.85,28.71 L 156.91,35.71 C 155.25,36.56 153.91,35.71 153.35,33.81 L 149.09,18.29 C 148.75,17.23 148.01,17.23 147.68,18.29 Z" fill="url(#paint4_linear_1002_10289)"/>
<path d="M 148.25,31.09 L 144.71,38.98 C 143.81,40.95 141.71,41.06 139.93,40.22 L 133.13,37.06 L 138.81,45.12 C 139.93,46.79 139.25,48.62 137.05,49.36 L 128.72,53.15 L 139.93,51.13 L 152.59,48.8 L 155.25,64.08 L 159.19,60.06 C 157.73,56.42 158.85,54.59 161.45,53.69 L 167.74,51.42 L 159.91,47.22 C 158.25,46.28 157.91,44.14 159.25,42.22 L 164.63,34.71 L 156.74,38.86 C 154.91,39.81 152.85,39.41 151.85,37.18 L 148.25,31.09 Z" fill="url(#paint5_linear_1002_10289)"/>
<path d="M 120.01,105.11 C 120.01,95.91 123.78,77.12 130.72,60.12 C 133.21,54.39 139.93,50.07 147.71,47.06 C 151.91,45.43 153.91,49.78 153.35,54.1 L 152.29,67.45 L 140.15,76.48 C 134.91,86.94 132.91,99.21 132.63,112.02 C 132.56,114.11 120.01,113.93 120.01,109.19 V 105.11 Z" fill="url(#paint6_linear_1002_10289)"/>
<path d="M 123.86,80.12 C 123.11,82.71 122.49,85.29 122.15,87.12 C 124.91,90.96 129.81,94.71 132.24,98.09 C 132.41,95.76 133.09,92.11 133.31,90.61 C 130.09,87.29 125.72,83.15 123.86,80.12 Z" fill="#F7A501"/>
<path d="M 130.03,65.01 C 128.91,67.29 127.86,70.09 127.41,71.81 C 129.69,76.36 133.79,80.21 136.66,83.23 C 137.4,81.21 138.01,79.49 138.63,77.71 C 136.03,74.12 132.19,69.06 130.03,65.01 Z" fill="#F7A501"/>
<path d="M 142.29,50.12 C 140.72,50.95 139.21,51.94 138.15,52.89 C 137.81,58.74 139.69,65.56 141.15,70.78 L 144.97,64.81 C 143.07,60.01 142.18,54.73 142.29,50.12 Z" fill="#F7A501"/>
<path d="M 120.91,97.14 C 120.68,98.92 120.29,103.09 120.29,104.31 C 123.4,107.06 127.49,110.76 131.96,112.31 L 132.46,108.72 C 130.32,104.02 124.86,100.23 120.91,97.14 Z" fill="#F7A501"/>
<path d="M 148.01,47.34 C 145.52,47.34 145.41,50.12 145.52,52.14 C 145.63,55.61 146.75,60.01 147.71,62.86 L 151.48,57.01 C 152.82,53.18 152.99,47.34 148.01,47.34 Z" fill="#F2E6CB"/>
<defs>
<linearGradient id="paint0_linear_1002_10289" x1="36.6465" y1="160.049" x2="215.354" y2="160.049" gradientUnits="userSpaceOnUse">
<stop stop-color="#DD4400"/>
<stop offset="1" stop-color="#B32500"/>
</linearGradient>
<linearGradient id="paint1_linear_1002_10289" x1="126.178" y1="179.208" x2="215.353" y2="179.208" gradientUnits="userSpaceOnUse">
<stop stop-color="#B82800"/>
<stop offset="1" stop-color="#B32500"/>
</linearGradient>
<linearGradient id="paint2_linear_1002_10289" x1="54.4892" y1="136.316" x2="198.646" y2="136.316" gradientUnits="userSpaceOnUse">
<stop stop-color="#F07800"/>
<stop offset="1" stop-color="#F69800"/>
</linearGradient>
<linearGradient id="paint3_linear_1002_10289" x1="108.414" y1="112.009" x2="145.081" y2="112.009" gradientUnits="userSpaceOnUse">
<stop stop-color="#5E0A00"/>
<stop offset="1" stop-color="#6D0C00"/>
</linearGradient>
<linearGradient id="paint4_linear_1002_10289" x1="148.588" y1="17.5173" x2="148.588" y2="78.0504" gradientUnits="userSpaceOnUse">
<stop stop-color="#F06D23"/>
<stop offset="1" stop-color="#F69800"/>
</linearGradient>
<linearGradient id="paint5_linear_1002_10289" x1="150.431" y1="31.0862" x2="150.431" y2="64.082" gradientUnits="userSpaceOnUse">
<stop stop-color="#F9D046"/>
<stop offset="1" stop-color="#F9D046" stop-opacity="0.25"/>
</linearGradient>
<linearGradient id="paint6_linear_1002_10289" x1="136.681" y1="46.5703" x2="136.681" y2="113.681" gradientUnits="userSpaceOnUse">
<stop stop-color="#F5B000"/>
<stop offset="1" stop-color="#FEF8DF"/>
</linearGradient>
</defs>
</svg>
